<svg width="436" height="81" viewBox="0 0 436 81" fill="none" xmlns="http://www.w3.org/2000/svg">
<g clip-path="url(#clip0_305_11)">
<path d="M282.27 0.209991H349.26V13.04C348.19 13.09 347.14 13.18 346.1 13.18C330.2 13.18 314.3 13.24 298.4 13.13C295.97 13.11 295.23 13.84 295.37 16.22C295.56 19.52 295.42 22.83 295.42 26.45H335.72V39.65C334.64 39.65 333.67 39.65 332.69 39.65C321.2 39.65 309.71 39.7 298.23 39.61C296.13 39.59 295.23 40.04 295.37 42.35C295.57 45.74 295.42 49.15 295.42 52.86H349.2V79.37C347.81 77.15 346.37 75.44 345.58 73.46C343.12 67.29 338.9 65.61 332.28 65.85C316.65 66.43 300.99 66.04 285.34 66.04C284.37 66.04 283.39 66.04 282.28 66.04V0.209991H282.27Z" fill="#DA1A37"/>
<path d="M365.81 0.139985C376.83 0.139985 387.23 0.139985 397.63 0.139985C402.79 0.139985 407.95 0.0699853 413.11 0.159985C423.78 0.359985 431.55 7.26999 433.06 17.77C434.55 28.17 425.9 38.8 415.36 39.51C413.73 39.62 412.1 39.69 409.94 39.8C418.38 53.34 426.57 66.48 435.07 80.1C429.76 80.1 424.98 80.18 420.21 80.01C419.52 79.99 418.72 78.84 418.22 78.06C410.63 66.03 403.05 54 395.57 41.9C394.52 40.2 393.37 39.51 391.38 39.6C388.06 39.76 384.72 39.74 381.39 39.6C379.45 39.52 378.78 40.12 378.81 42.13C378.92 49.04 378.85 55.95 378.85 62.85C378.85 63.76 378.85 64.67 378.85 65.8H365.82C365.75 65.11 365.62 64.33 365.62 63.54C365.61 52.05 365.66 40.57 365.57 29.08C365.55 26.97 366.25 26.42 368.28 26.43C382.51 26.51 396.75 26.47 410.98 26.46C412.14 26.46 413.32 26.42 414.46 26.22C417.58 25.68 419.8 23.05 419.86 19.95C419.92 16.99 417.87 14.23 414.95 13.52C413.83 13.25 412.65 13.17 411.49 13.17C401.58 13.14 391.68 13.22 381.77 13.11C379.53 13.09 378.53 13.66 378.82 16.02C378.98 17.32 378.85 18.65 378.33 20.2C374.25 13.66 370.17 7.11999 365.79 0.109985L365.81 0.139985Z" fill="#DA1A37"/>
<path d="M117.11 0.160004C122.02 0.160004 126.94 -0.0399963 131.84 0.200004C142.04 0.700004 150.21 8.9 150.49 19.11C150.75 28.34 150.73 37.59 150.5 46.82C150.25 57.11 142.03 65.55 131.72 65.9C121.91 66.23 112.07 66.23 102.26 65.9C91.72 65.55 83.89 57.43 83.43 46.08C83.05 36.54 83.26 26.94 83.76 17.4C84.23 8.44 92.59 0.630004 101.62 0.230004C106.77 3.66569e-06 111.94 0.190004 117.1 0.190004C117.1 0.190004 117.1 0.170004 117.1 0.160004H117.11ZM137.35 33.35C137.35 29.11 137.42 24.86 137.33 20.62C137.24 16.11 134.72 13.33 130.26 13.25C121.44 13.1 112.61 13.1 103.79 13.25C99.23 13.33 96.64 16.22 96.62 20.8C96.58 28.96 96.58 37.11 96.62 45.27C96.64 49.98 99.24 52.83 103.97 52.91C112.62 53.05 121.28 53.04 129.94 52.91C134.7 52.84 137.26 50.09 137.34 45.34C137.41 41.35 137.35 37.35 137.35 33.35Z" fill="#DA1A37"/>
<path d="M67.08 1.44999V65.82H53.94V47.23L53.29 46.99C46.73 57.94 40.17 68.9 33.48 80.06C26.8 68.86 20.27 57.91 13.74 46.96C13.56 47.01 13.39 47.07 13.21 47.12V65.85H0V0.549988C11.3 19.46 22.26 37.81 33.48 56.6C44.68 37.89 55.67 19.56 66.66 1.21999C66.8 1.29999 66.95 1.36999 67.09 1.44999H67.08Z" fill="#DA1A37"/>
<path d="M159.14 0.209989H205.63C201.33 7.08999 197.22 13.65 193.12 20.21C192.94 20.16 192.75 20.12 192.57 20.07C192.57 18.37 192.53 16.66 192.58 14.96C192.62 13.68 192.09 13.16 190.82 13.18C188.42 13.22 186.02 13.19 182.87 13.19C188.77 22.6 194.38 31.53 200.21 40.83C200.88 39.81 201.37 39.09 201.82 38.36C209.4 26.24 216.99 14.13 224.5 1.95999C225.41 0.479989 226.42 -0.0400113 228.1 -1.1255e-05C232.31 0.0999887 236.53 0.0299887 241.36 0.0299887C227.52 22.22 214 43.9 200.25 65.96C186.52 43.99 172.94 22.28 159.14 0.209989Z" fill="#DA1A37"/>
<path d="M265.75 79.46C262.75 74.66 260.3 70.13 257.26 66.04C253.61 61.13 252.17 55.94 252.58 49.83C253.01 43.29 252.68 36.7 252.68 30.14V27.29H265.75V79.47V79.46Z" fill="#DA1A37"/>
<path d="M265.77 13.02H252.83V0.290009H265.77V13.02Z" fill="#DA1A37"/>
<path d="M112.67 33.06C112.67 28.83 112.8 28.7 116.96 28.7C121.12 28.7 121.46 29.04 121.45 33.21C121.45 37.05 121 37.47 116.93 37.47C112.85 37.47 112.67 37.28 112.67 33.06Z" fill="#DA1A37"/>
</g>
<defs>
<clipPath id="clip0_305_11">
<rect width="435.07" height="80.13" fill="white"/>
</clipPath>
</defs>
</svg>