<svg width="119" height="97" viewBox="0 0 119 97" fill="none" xmlns="http://www.w3.org/2000/svg%22%3E
<g clip-path="url(#clip0_306_2)">
<path d="M100.16 0H18.16C8.13051 0 0 8.13051 0 18.16V78.71C0 88.7395 8.13051 96.87 18.16 96.87H100.16C110.189 96.87 118.32 88.7395 118.32 78.71V18.16C118.32 8.13051 110.189 0 100.16 0Z" fill="#171721"/>
<path d="M92.7 9.58V73.95H79.56V55.3C79.22 55.2 79.25 55.21 78.91 55.12C72.35 66.07 65.79 77.03 59.1 88.2C52.42 77 45.89 66.05 39.36 55.1L38.83 55.25V74H25.62V8.68C30.86 17.46 36.03 26.11 41.19 34.75L59.1 64.73C65.13 54.67 71.09 44.71 77.03 34.81L92.23 9.45L92.72 9.58H92.7Z" fill="#DA1A38"/>
<path d="M39.38 55.09L59.12 88.19L78.93 55.12L59.09 64.73L39.38 55.09Z" fill="#C1223A"/>
</g>
<defs>
<clipPath id="clip0_306_2">
<rect width="118.32" height="96.87" fill="white"/>
</clipPath>
</defs>
</svg>