<svg width="195" height="52" viewBox="0 0 195 52" fill="none" xmlns="http://www.w3.org/2000/svg">
<g clip-path="url(#clip0_309_2)">
<path d="M18.05 18.1C20.61 15.71 23.13 13.41 25.58 11.05C27.47 9.22 29.28 7.3 31.13 5.43C32.02 4.53 33.06 4.22 34.29 4.64C35.59 5.08 36.15 6.07 36.32 7.35C36.36 7.62 36.35 7.9 36.35 8.18C36.35 17.84 36.35 27.5 36.35 37.16C36.35 39.44 35.57 40.61 33.88 40.91C32.3 41.19 30.88 40.31 30.54 38.75C30.39 38.08 30.35 37.38 30.35 36.69C30.33 29.99 30.34 23.29 30.34 16.59C30.34 16.14 30.34 15.7 30.34 15.2C27.91 17.55 25.57 19.81 23.24 22.08C22.51 22.79 21.84 23.56 21.12 24.27C19.19 26.16 17.66 26.19 15.74 24.31C12.87 21.49 10.04 18.64 7.18003 15.81C6.92003 15.55 6.64003 15.31 6.14003 14.84C6.11003 15.52 6.06003 15.99 6.06003 16.45C6.06003 23.2 6.06003 29.94 6.06003 36.69C6.06003 37.29 6.04003 37.89 5.94003 38.48C5.67003 39.99 4.55003 40.93 3.06003 40.98C1.69003 41.02 0.51003 40.14 0.16003 38.7C0.0200302 38.13 3.02019e-05 37.51 3.02019e-05 36.92C3.02019e-05 27.49 3.02019e-05 18.06 3.02019e-05 8.63C3.02019e-05 8.45 3.02019e-05 8.26 3.02019e-05 8.08C-0.0599698 6.56 0.46003 5.34 1.91003 4.7C3.36003 4.05 4.49003 4.72 5.50003 5.72C6.91003 7.12 8.34003 8.5 9.75003 9.9C12.31 12.44 14.86 14.99 17.41 17.53C17.7 17.82 18.01 18.08 18.04 18.11L18.05 18.1Z" fill="white"/>
<path d="M185.65 25.66C188.36 29.12 190.99 32.5 193.63 35.87C194.87 37.46 194.81 39.18 193.46 40.29C192.09 41.42 190.33 41.2 189.08 39.64C185.22 34.81 181.39 29.96 177.56 25.11C176.69 24 176.24 22.77 176.95 21.39C177.63 20.07 178.79 19.7 180.19 19.73C181.48 19.76 182.78 19.77 184.07 19.73C186.44 19.64 188.33 17.75 188.46 15.39C188.6 12.9 187.11 10.99 184.67 10.54C184.53 10.51 184.4 10.47 184.26 10.47C179.78 10.47 175.31 10.47 170.68 10.47C170.65 11.05 170.6 11.58 170.6 12.11C170.6 20.34 170.6 28.57 170.6 36.8C170.6 39.69 169.62 41.05 167.56 41C165.58 40.95 164.63 39.59 164.63 36.81C164.63 27.47 164.63 18.13 164.63 8.8C164.63 5.38 165.55 4.48 169.01 4.48C173.86 4.48 178.72 4.43 183.57 4.49C190.46 4.58 195.41 10.09 194.39 16.66C193.7 21.08 191 23.9 186.78 25.31C186.44 25.42 186.1 25.53 185.65 25.68V25.66Z" fill="#DA1A38"/>
<path d="M40.26 22.77C40.21 12.74 48.41 4.48 58.43 4.46C68.36 4.44 76.58 12.65 76.61 22.62C76.64 32.75 68.46 41 58.38 41.02C48.49 41.04 40.31 32.79 40.26 22.77V22.77ZM70.59 22.71C70.61 16 64.99 10.36 58.35 10.43C51.76 10.5 46.4 15.94 46.32 22.62C46.25 29.39 51.73 35.02 58.4 35.02C65.1 35.02 70.57 29.51 70.59 22.71Z" fill="white"/>
<path d="M98.72 31.11C102.67 23.21 106.54 15.45 110.41 7.69C110.7 7.11 110.96 6.52 111.28 5.96C112.03 4.66 113.53 4.12 114.84 4.65C116.37 5.28 117.22 6.69 116.6 8.2C115.56 10.75 114.32 13.23 113.1 15.7C109.27 23.43 105.4 31.14 101.57 38.87C100.97 40.09 100.17 40.96 98.77 41C97.31 41.04 96.4 40.19 95.77 38.93C90.87 29.05 85.95 19.18 81.06 9.3C80.2 7.57 80.43 6.15 81.63 5.16C83.21 3.86 85.18 4.28 86.29 6.23C87.1 7.68 87.78 9.2 88.51 10.69C91.8 17.35 95.09 24.01 98.38 30.67C98.44 30.79 98.54 30.88 98.72 31.11V31.11Z" fill="white"/>
<path d="M120.73 25.55C120.73 18.25 120.73 10.95 120.73 3.65C120.73 2.39 120.93 1.25 122.08 0.5C123.97 -0.73 126.39 0.4 126.66 2.65C126.73 3.2 126.71 3.76 126.71 4.31C126.71 18.49 126.71 32.68 126.71 46.86C126.71 47.37 126.71 47.88 126.66 48.38C126.47 49.95 125.3 51.04 123.82 51.08C122.34 51.12 121.08 50.08 120.81 48.55C120.72 48.06 120.75 47.54 120.75 47.03C120.75 39.87 120.75 32.71 120.75 25.55H120.73Z" fill="white"/>
<path d="M145.7 25.72C141.86 25.72 138.03 25.75 134.19 25.72C132.01 25.7 130.81 24.71 130.68 22.98C130.56 21.46 131.41 20.26 132.89 19.92C133.42 19.8 133.98 19.75 134.53 19.75C141.93 19.74 149.32 19.75 156.72 19.75C157.14 19.75 157.56 19.75 157.96 19.81C159.61 20.05 160.69 21.23 160.7 22.78C160.7 24.25 159.54 25.59 157.9 25.66C155.41 25.78 152.91 25.72 150.42 25.73C148.85 25.73 147.28 25.73 145.71 25.73L145.7 25.72Z" fill="white"/>
<path d="M145.64 41.02C141.8 41.02 137.96 41.05 134.13 41.02C131.57 40.99 130.17 39.31 130.81 37.15C131.23 35.74 132.32 35.06 134.32 35.06C140.24 35.05 146.16 35.06 152.07 35.06C153.73 35.06 155.4 35.03 157.06 35.07C159.21 35.13 160.51 36.3 160.47 38.08C160.43 39.9 159.15 41.02 157.02 41.03C153.23 41.05 149.44 41.03 145.65 41.03L145.64 41.02Z" fill="white"/>
<path d="M145.45 10.39C141.53 10.39 137.6 10.39 133.68 10.39C132.36 10.39 131.34 9.8 130.86 8.56C130.43 7.46 130.5 6.26 131.43 5.5C132.09 4.96 133.06 4.51 133.89 4.51C141.64 4.44 149.4 4.45 157.15 4.48C159.18 4.48 160.46 5.68 160.47 7.42C160.48 9.2 159.29 10.37 157.21 10.39C153.29 10.44 149.36 10.41 145.44 10.4L145.45 10.39Z" fill="white"/>
</g>
<defs>
<clipPath id="clip0_309_2">
<rect width="194.52" height="51.08" fill="white"/>
</clipPath>
</defs>
</svg>