<svg width="32" height="32" viewBox="0 0 32 32" fill="none" xmlns="http://www.w3.org/2000/svg">
<path d="M26.6667 7.71999H27.1667L27.1666 7.71448L26.6667 7.71999ZM26.5067 28.6133L26.9463 28.8515L26.9479 28.8486L26.5067 28.6133ZM25.68 29.28L25.538 28.8006L25.533 28.8021L25.68 29.28ZM24.6267 29.1467L24.8786 28.7148L24.8647 28.7066L24.8503 28.6994L24.6267 29.1467ZM15.9867 24.8267L16.2103 24.3794L15.9868 24.2677L15.7633 24.3793L15.9867 24.8267ZM7.33334 29.1467L7.10995 28.6992L7.09913 28.7049L7.33334 29.1467ZM20.0933 2.16666H11.8667V3.16666H20.0933V2.16666ZM27.1666 7.71448C27.1449 5.74591 26.3299 4.32686 25.0019 3.42036C23.7006 2.53212 21.954 2.16666 20.0933 2.16666V3.16666C21.846 3.16666 23.3661 3.51453 24.4381 4.24629C25.4834 4.95979 26.1484 6.0674 26.1667 7.7255L27.1666 7.71448ZM27.1667 27.96V7.71999H26.1667V27.96H27.1667ZM26.9479 28.8486C27.0954 28.5719 27.1667 28.2638 27.1667 27.96H26.1667C26.1667 28.1096 26.1313 28.2547 26.0655 28.378L26.9479 28.8486ZM25.8221 29.7594C26.3089 29.6151 26.7095 29.2886 26.9463 28.8515L26.067 28.3752C25.9572 28.578 25.7711 28.7315 25.538 28.8006L25.8221 29.7594ZM24.3747 29.5785C24.8064 29.8304 25.3371 29.9086 25.8271 29.7579L25.533 28.8021C25.3295 28.8647 25.0869 28.8363 24.8786 28.7148L24.3747 29.5785ZM15.7631 25.2739L24.4031 29.5939L24.8503 28.6994L16.2103 24.3794L15.7631 25.2739ZM7.55667 29.594L16.21 25.274L15.7633 24.3793L7.11001 28.6993L7.55667 29.594ZM6.68001 29.82C7.00372 29.82 7.31169 29.7241 7.56756 29.5884L7.09913 28.7049C6.95766 28.7799 6.80963 28.82 6.68001 28.82V29.82ZM4.83334 27.96C4.83334 28.9764 5.65081 29.82 6.68001 29.82V28.82C6.21588 28.82 5.83334 28.4369 5.83334 27.96H4.83334ZM4.83334 7.71999V27.96H5.83334V7.71999H4.83334ZM11.8667 2.16666C10.0127 2.16666 8.26577 2.53211 6.96758 3.42073C5.6419 4.32817 4.83334 5.74929 4.83334 7.71999H5.83334C5.83334 6.06402 6.49145 4.95848 7.53244 4.24592C8.60092 3.51454 10.1207 3.16666 11.8667 3.16666V2.16666ZM21 12.3266H10.96V13.3266H21V12.3266ZM21.54 11.7733C21.54 12.0871 21.2926 12.3266 21 12.3266V13.3266C21.854 13.3266 22.54 12.6302 22.54 11.7733H21.54ZM21 11.22C21.293 11.22 21.54 11.4586 21.54 11.7733H22.54C22.54 10.9147 21.8536 10.22 21 10.22V11.22ZM10.96 11.22H21V10.22H10.96V11.22ZM10.42 11.7733C10.42 11.4586 10.6669 11.22 10.96 11.22V10.22C10.1064 10.22 9.41999 10.9147 9.41999 11.7733H10.42ZM10.96 12.3266C10.6674 12.3266 10.42 12.0871 10.42 11.7733H9.41999C9.41999 12.6302 10.106 13.3266 10.96 13.3266V12.3266Z" fill="white"/>
</svg>
