<svg width="32" height="32" viewBox="0 0 32 32" fill="none" xmlns="http://www.w3.org/2000/svg">
<path d="M21.251 16.9455L20.8533 16.6424L20.851 16.6454L21.251 16.9455ZM20.8906 17.3571L21.2441 17.7108L21.2441 17.7108L20.8906 17.3571ZM21.2252 15.003L21.6208 14.6972L21.6013 14.672L21.5787 14.6494L21.2252 15.003ZM21.1264 14.8971L20.7582 15.2354L20.7582 15.2354L21.1264 14.8971ZM20.8005 14.5528L20.4348 14.8938L20.4408 14.9002L20.447 14.9064L20.8005 14.5528ZM15.5496 11.0024L15.3616 11.4658L15.3668 11.4678L15.5496 11.0024ZM14.4813 10.7065L14.503 10.207L14.4922 10.2065H14.4813V10.7065ZM13.6705 10.8995L13.447 10.4522L13.4365 10.4575L13.4263 10.4632L13.6705 10.8995ZM12.9498 11.697L12.4894 11.5021L12.4865 11.5089L12.4838 11.5157L12.9498 11.697ZM12.7181 12.6361L13.2097 12.7278L13.2181 12.6823V12.6361H12.7181ZM12.6924 19.2481L12.1979 19.3223L12.2224 19.4853L12.339 19.6018L12.6924 19.2481ZM12.7239 19.3922L12.2336 19.4906L12.7239 19.3922ZM13.0013 20.4187L12.558 20.6501L12.5584 20.6508L13.0013 20.4187ZM14.4813 21.2934V21.7934H14.4897L14.498 21.7932L14.4813 21.2934ZM15.6783 20.9333L15.4866 20.4714L15.1783 20.5994V20.9333H15.6783ZM20.8134 17.4343L20.4599 17.0807L20.4529 17.0877L20.4461 17.0951L20.8134 17.4343ZM16 2.16666C8.37497 2.16666 2.16667 8.3723 2.16667 16.0077H3.16667C3.16667 8.92435 8.92749 3.16666 16 3.16666V2.16666ZM29.8333 16.0077C29.8333 8.3723 23.625 2.16666 16 2.16666V3.16666C23.0725 3.16666 28.8333 8.92435 28.8333 16.0077H29.8333ZM16 29.8333C23.6247 29.8333 29.8333 23.6281 29.8333 16.0077H28.8333C28.8333 23.0753 23.0729 28.8333 16 28.8333V29.8333ZM2.16667 16.0077C2.16667 23.6281 8.37534 29.8333 16 29.8333V28.8333C8.92711 28.8333 3.16667 23.0753 3.16667 16.0077H2.16667ZM20.851 16.6454C20.851 16.6454 20.8508 16.6457 20.8501 16.6466C20.8495 16.6474 20.8487 16.6484 20.8476 16.6498C20.8454 16.6526 20.8426 16.6563 20.839 16.6608C20.8318 16.6698 20.8226 16.6812 20.8115 16.6948C20.7893 16.7218 20.7612 16.7555 20.7298 16.792C20.6656 16.867 20.5947 16.9459 20.5371 17.0035L21.2441 17.7108C21.405 17.5499 21.6005 17.3127 21.6509 17.2456L20.851 16.6454ZM21.0598 16.0077C21.0598 16.2404 20.9876 16.4662 20.8533 16.6424L21.6486 17.2486C21.9262 16.8844 22.0598 16.4414 22.0598 16.0077H21.0598ZM20.8297 15.3089C20.9776 15.5002 21.0598 15.7388 21.0598 16.0077H22.0598C22.0598 15.528 21.9105 15.0719 21.6208 14.6972L20.8297 15.3089ZM20.7582 15.2354C20.799 15.2798 20.8441 15.3291 20.8718 15.3567L21.5787 14.6494C21.5787 14.6494 21.5766 14.6473 21.5714 14.6418C21.5665 14.6367 21.5603 14.6301 21.5526 14.6217C21.537 14.6049 21.5178 14.5841 21.4946 14.5588L20.7582 15.2354ZM20.447 14.9064C20.5557 15.0151 20.6715 15.141 20.7582 15.2354L21.4946 14.5588C21.4101 14.4669 21.2802 14.3253 21.154 14.1992L20.447 14.9064ZM15.3668 11.4678C16.0362 11.7307 17.0493 12.311 18.0401 12.9798C19.0316 13.6489 19.9464 14.3698 20.4348 14.8938L21.1662 14.2119C20.5993 13.6038 19.6094 12.8325 18.5995 12.1509C17.5891 11.469 16.5043 10.8401 15.7323 10.537L15.3668 11.4678ZM14.4596 11.2061C14.5395 11.2095 14.6994 11.2441 14.8997 11.3046C15.0873 11.3613 15.2659 11.4269 15.3616 11.4657L15.7375 10.5391C15.6144 10.4891 15.4069 10.4132 15.1891 10.3474C14.984 10.2854 14.7192 10.2164 14.503 10.207L14.4596 11.2061ZM13.8941 11.3467C14.0832 11.2522 14.2771 11.2065 14.4813 11.2065V10.2065C14.1193 10.2065 13.7726 10.2895 13.447 10.4522L13.8941 11.3467ZM13.4103 11.8919C13.5071 11.6631 13.6866 11.4635 13.9147 11.3358L13.4263 10.4632C13.0109 10.6957 12.6756 11.0621 12.4894 11.5021L13.4103 11.8919ZM13.2181 12.6361C13.2181 12.6595 13.2164 12.6776 13.216 12.6824C13.2153 12.6899 13.2145 12.6959 13.2141 12.699C13.2133 12.7054 13.2126 12.7102 13.2123 12.7116C13.2118 12.715 13.2115 12.7166 13.2118 12.715C13.2122 12.7125 13.2133 12.7069 13.2151 12.6976C13.2187 12.6794 13.2241 12.6523 13.2312 12.6184C13.2453 12.5506 13.2651 12.4585 13.2876 12.3599C13.3361 12.1476 13.3865 11.9536 13.4158 11.8783L12.4838 11.5157C12.423 11.672 12.3576 11.9411 12.3128 12.1372C12.2886 12.2429 12.2674 12.3413 12.2522 12.4147C12.2446 12.4512 12.2383 12.4824 12.2337 12.5055C12.2315 12.5169 12.2294 12.5277 12.2278 12.5369C12.227 12.5412 12.2259 12.5475 12.2248 12.5543C12.2243 12.5574 12.2233 12.5635 12.2224 12.571C12.2219 12.5746 12.2211 12.581 12.2204 12.589C12.2199 12.5941 12.2181 12.6125 12.2181 12.6361H13.2181ZM12.9994 15.9936C12.9994 14.6393 13.0766 13.441 13.2097 12.7278L12.2266 12.5444C12.0765 13.3492 11.9994 14.6207 11.9994 15.9936H12.9994ZM13.1869 19.1739C13.076 18.4348 12.9994 17.2792 12.9994 15.9936H11.9994C11.9994 17.309 12.0772 18.5177 12.1979 19.3223L13.1869 19.1739ZM13.2141 19.2939C13.2058 19.2524 13.198 19.2135 13.1919 19.1849C13.189 19.1713 13.1852 19.154 13.1811 19.1377C13.1793 19.1306 13.1754 19.1154 13.1697 19.0978C13.167 19.0896 13.1611 19.0718 13.1518 19.0504C13.1515 19.0496 13.12 18.9686 13.0459 18.8944L12.339 19.6018C12.3145 19.5773 12.297 19.5547 12.2857 19.5389C12.274 19.5225 12.2652 19.5081 12.2589 19.4972C12.2469 19.4761 12.2388 19.4584 12.2344 19.4482C12.2256 19.428 12.2202 19.4118 12.2183 19.4056C12.2138 19.392 12.2115 19.3823 12.2114 19.3821C12.2108 19.3797 12.2115 19.3822 12.2139 19.3935C12.2184 19.4147 12.2248 19.4463 12.2336 19.4906L13.2141 19.2939ZM13.4445 20.1873C13.418 20.1364 13.3735 20.0008 13.3241 19.8002C13.2788 19.616 13.2404 19.4252 13.2141 19.2939L12.2336 19.4906C12.2596 19.62 12.3019 19.8311 12.3531 20.0393C12.4003 20.2311 12.4684 20.4783 12.558 20.6501L13.4445 20.1873ZM14.4299 20.7934C14.0267 20.7934 13.6423 20.5648 13.4442 20.1866L12.5584 20.6508C12.9265 21.3532 13.649 21.7934 14.4299 21.7934V20.7934ZM14.4813 20.7934H14.4299V21.7934H14.4813V20.7934ZM15.1783 20.9333C15.1783 20.7799 15.2478 20.6762 15.2696 20.6454C15.2987 20.604 15.3277 20.5765 15.3414 20.5641C15.3699 20.5381 15.3949 20.5217 15.4024 20.5169C15.4211 20.5046 15.4357 20.4971 15.4371 20.4963C15.4435 20.493 15.4446 20.4927 15.4361 20.4966C15.4213 20.5033 15.3947 20.5147 15.3572 20.53C15.283 20.5602 15.1779 20.6004 15.0611 20.6408C14.9438 20.6814 14.82 20.7203 14.7072 20.7492C14.5881 20.7797 14.5066 20.7923 14.4647 20.7937L14.498 21.7932C14.7763 21.7839 15.1423 21.6709 15.3881 21.5859C15.5223 21.5394 15.644 21.4929 15.7339 21.4563C15.7784 21.4382 15.8181 21.4213 15.8493 21.4072C15.8636 21.4007 15.8825 21.3919 15.901 21.3822C15.9084 21.3783 15.9276 21.3682 15.9495 21.3539C15.9585 21.348 15.9846 21.3308 16.014 21.3041C16.028 21.2913 16.0573 21.2635 16.0866 21.2219C16.1086 21.1908 16.1783 21.0868 16.1783 20.9333H15.1783ZM20.4461 17.0951C19.9459 17.6367 19.0422 18.3439 18.073 18.9956C17.106 19.6458 16.1241 20.2069 15.4866 20.4714L15.8699 21.3951C16.5966 21.0936 17.6418 20.4906 18.631 19.8254C19.6181 19.1618 20.5998 18.4025 21.1807 17.7735L20.4461 17.0951ZM20.5371 17.0035L20.4599 17.0807L21.1669 17.7879L21.2441 17.7108L20.5371 17.0035Z" fill="white"/>
</svg>
