<svg width="32" height="32" viewBox="0 0 32 32" fill="none" xmlns="http://www.w3.org/2000/svg">
<path d="M16 17.2775C20.1949 17.2775 23.5587 13.9137 23.5587 9.72139H22.5587C22.5587 13.3612 19.6428 16.2775 16 16.2775V17.2775ZM8.44138 9.72139C8.44138 13.9137 11.8066 17.2775 16 17.2775V16.2775C12.3585 16.2775 9.44138 13.3611 9.44138 9.72139H8.44138ZM16 2.16666C11.8067 2.16666 8.44138 5.52892 8.44138 9.72139H9.44138C9.44138 6.08179 12.3584 3.16666 16 3.16666V2.16666ZM23.5587 9.72139C23.5587 5.52898 20.1947 2.16666 16 2.16666V3.16666C19.6429 3.16666 22.5587 6.08173 22.5587 9.72139H23.5587ZM4.83334 24.7666C4.83334 25.7981 5.18523 26.6575 5.81809 27.348C6.44062 28.0273 7.31386 28.5211 8.33095 28.8813C10.3585 29.5993 13.0961 29.8333 16 29.8333V28.8333C13.1204 28.8333 10.5247 28.5973 8.66477 27.9387C7.73814 27.6105 7.02911 27.1893 6.55532 26.6724C6.09185 26.1666 5.83334 25.5485 5.83334 24.7666H4.83334ZM16 19.7319C13.1123 19.7319 10.3753 19.9575 8.34451 20.6667C7.32588 21.0225 6.44944 21.5118 5.82397 22.188C5.18785 22.8757 4.83334 23.7339 4.83334 24.7666H5.83334C5.83334 23.9854 6.09306 23.3697 6.55807 22.867C7.03372 22.3528 7.7453 21.9352 8.67422 21.6108C10.5386 20.9597 13.1349 20.7319 16 20.7319V19.7319ZM27.1667 24.7986C27.1667 23.7672 26.8149 22.9078 26.1821 22.2173C25.5597 21.538 24.6866 21.0441 23.6696 20.6839C21.6422 19.9659 18.9046 19.7319 16 19.7319V20.7319C18.8803 20.7319 21.476 20.9679 23.3357 21.6266C24.2623 21.9547 24.9712 22.3759 25.4449 22.8928C25.9082 23.3985 26.1667 24.0167 26.1667 24.7986H27.1667ZM16 29.8333C18.8877 29.8333 21.6248 29.6078 23.6555 28.8985C24.6741 28.5428 25.5506 28.0534 26.176 27.3773C26.8122 26.6896 27.1667 25.8314 27.1667 24.7986H26.1667C26.1667 25.5799 25.907 26.1955 25.442 26.6982C24.9663 27.2124 24.2547 27.63 23.3258 27.9544C21.4614 28.6056 18.8652 28.8333 16 28.8333V29.8333Z" fill="white"/>
</svg>
