<?xml version="1.0" encoding="utf-8"?>
<!-- Svg Vector Icons : http://www.onlinewebfonts.com/icon -->
<!DOCTYPE svg PUBLIC "-//W3C//DTD SVG 1.1//EN" "http://www.w3.org/Graphics/SVG/1.1/DTD/svg11.dtd">
<svg version="1.1" xmlns="http://www.w3.org/2000/svg" xmlns:xlink="http://www.w3.org/1999/xlink" x="0px" y="0px" viewBox="0 0 1000 1000" enable-background="new 0 0 1000 1000" xml:space="preserve">
<metadata> Svg Vector Icons : http://www.onlinewebfonts.com/icon </metadata>
<g><path d="M896.6,564.7l38.5,81l-85.8,40.4l35,73.8l-106.3,50l-25.3-53.3l52.8-24.8L770.4,658l85.9-40.4l-38.5-81.1l83.1-39.1l-27.2-57.2l53.6-25.2l52.5,110.5L896.6,564.7z M88.1,804.6L374.2,10l520.1,185.3L608.3,990L88.1,804.6z M818.6,230.9L410,85.3L224.6,600.2l408.6,145.6L818.6,230.9z M204.7,655.6l-40.8,113.4l408.6,145.6l40.8-113.4L204.7,655.6z M214.2,321.5l-81.4,38.3l40.6,85.4l-74.2,34.9l28.5,60.1l-53.6,25.2L20.3,452l74.2-34.9l-40.6-85.4l81.4-38.3l-39.3-82.7l111.1-52.2l25.3,53.3l-57.5,27.1L214.2,321.5z"/></g>
</svg>